<svg width="150" height="200" xmlns="http://www.w3.org/2000/svg">
 <g>
  <title>Layer 1</title>
  <path d="m336,364c0,0 0,0 0,0c1,1 1.4588,1.69345 2,3c0.38269,0.92389 0.5405,3.0535 1,5c0.51373,2.17624 2.23172,3.92767 4,10c1.15277,3.95868 0.56952,4.133 2,8c0.77579,2.09717 2,3 3,7c1,4 2.91751,9.00342 3,10c0.50171,6.06204 2,7 2,9c0,1 0,3 0,4c0,2 0,4 0,7c0,4 0,5 0,6c0,2 0.38269,4.07611 0,5c-0.5412,1.30655 -0.08099,3.10699 -1,7c-0.51373,2.17624 -0.61731,4.07611 -1,5c-0.5412,1.30655 -1,2 -1,3c0,1 -0.67963,2.02582 -1,4c-0.50653,3.12143 -1.4588,3.69345 -2,5c-0.76538,1.84775 -0.4588,2.69345 -1,4c-0.76538,1.84775 -1,3 -1,4c0,1 -0.61731,3.07611 -1,4c-0.5412,1.30655 -0.29291,2.29291 -1,3c-0.70709,0.70709 -1,1 -1,2c0,0 -1,1 -1,1c0,0 0,1 -1,2c0,0 -0.23462,1.15225 -1,3c-0.5412,1.30655 -1.4588,0.69345 -2,2c-0.38269,0.92389 0.41422,1.58578 -1,3c-0.70709,0.70709 -0.61731,0.07611 -1,1c-0.5412,1.30655 -1,1 -1,1l-1,1l0,0l0,0" id="svg_4" stroke="#000" fill="none"/>
  <polyline stroke-linecap="round" id="svg_6" points="403,356 403,356 " stroke="#000" fill="none"/>
  <path stroke="#000" d="m310,361c0,0 0.39543,0.70709 1.35,0c0.95457,-0.70709 0.61938,-1.69345 1.35,-3c0.51663,-0.92389 0.83337,-3.07611 1.35,-4c0.73062,-1.30655 1.03981,-2.02676 1.35,-3c0.69354,-2.17624 1.96938,-1.69345 2.7,-3c1.03326,-1.84775 0,-2 0,-2c1.35,-1 1.35,-2 1.35,-2c0,-1 1.35,-2 1.35,-2c0,-1 0,-1 0,-2c0,0 0,-1 0,-1c1.35,0 1.35,0 1.35,-1c0,0 -0.95457,0.29291 0,1c0.95457,0.70709 1.35,1 1.35,1c1.35,1 2.7,3 2.7,4c0,0 0.83337,1.07611 1.35,2c0.73062,1.30655 2.7,2 4.05,4c0,0 1.35,2 2.7,3c0,0 1.35,1 1.35,2c0,0 1.35,0 1.35,0c0,1 0,1 0,1l0,0" id="svg_7" fill="none"/>
  <path stroke="#000" filter="url(#svg_11_blur)" stroke-width="3" d="m105,188.00001c0,0 -1,0 -1,-1.14286c0,0 -0.49346,-3.28978 -1,-6.85714c-0.48055,-3.38429 0,-5.71429 0,-10.28571c0,-2.28571 0,-5.71429 0,-6.85714c0,-3.42857 -1,-9.14286 -1,-10.28571c0,-1.14286 0,-3.42857 0,-5.71429c0,-1.14286 -1,-3.42857 -1,-4.57143c0,-1.14286 -0.29289,-3.76331 -1,-4.57143c-1.41422,-1.61625 0.66251,-3.78287 -1,-6.85714c-0.7435,-1.37486 -1.83982,-3.44332 -2,-4.57143c-0.50654,-3.56737 -1.97251,-3.02571 -3,-8c-0.4595,-2.22457 -1.48626,-3.22714 -2,-5.71429c-0.22975,-1.11229 -1.48626,-3.22714 -2,-5.71429c-0.4595,-2.22457 -1.48626,-4.37 -2,-6.85714c-0.4595,-2.22457 -0.61732,-2.37271 -1,-3.42857c-0.5412,-1.49322 -1.81089,-4.59205 -2,-5.71429c-1.01837,-6.04342 -5.14429,-13.63902 -6,-16c-1.21015,-3.33893 -0.69255,-4.78401 -2,-6.85714c-0.8269,-1.31117 -2,-2.28571 -2,-3.42857c0,-1.14286 -1.61732,-2.37271 -2,-3.42857c-0.5412,-1.49322 -1.29289,-3.76331 -2,-4.57143c-0.70711,-0.80812 -1.4588,-0.7925 -2,-2.28571c-0.38268,-1.05586 -1,-2.28571 -1,-2.28571c0,-1.14286 -1,-1.14286 -1,-1.14286c0,-1.14286 0,-1.14286 0,-1.14286c0,-1.14286 -1,-1.14286 -1,-1.14286c-1,-1.14286 -1,-2.28571 -1,-2.28571c-1,-2.28571 -2,-3.42857 -2,-3.42857c0,-1.14286 -0.61732,-1.22985 -1,-2.28571c-0.5412,-1.49322 -1,-1.14286 -1,-2.28571c0,0 -1,0 -1,-1.14286c0,0 -1,0 -1,0l0,-1.14286" id="svg_11" fill="none"/>
  <path filter="url(#svg_12_blur)" stroke-width="4" d="m50,58c0,0 0,0 0,-1c0,0 0.77025,-1.02675 1,-2c0.51374,-2.17625 1.61732,-3.07612 2,-4c0.5412,-1.30656 2,-2 2,-3c0,0 0.29289,-1.29289 1,-2c0.70711,-0.70711 1.4588,-0.69344 2,-2c0.38268,-0.92388 0.29289,-2.29289 1,-3c0.70711,-0.70711 1,-1 1,-1c0,-1 0.29289,-0.29289 1,-1c0.70711,-0.70711 0,-1 0,-1l0,-1" id="svg_12" stroke="#000" fill="none"/>
  <path stroke="#000" filter="url(#svg_14_blur)" d="m59,36.13167c1,0 1,0 1,0c1,0 1,0 4,0c2,0 2.0535,-0.75576 4,0c2.17625,0.84497 5.04132,3.03818 9,4.93417c3.03616,1.45415 3.22836,1.40122 6,3.28944c1.30656,0.89012 1,1.64472 2,1.64472l0,0l0,0" id="svg_14" stroke-width="3" fill="none"/>
 </g>
</svg>