<svg width="200" height="160" xmlns="http://www.w3.org/2000/svg">

 <g>
  <title>Layer 1</title>
  <path fill="none" stroke="#000" id="svg_4" d="m336,364c0,0 0,0 0,0c1,1 1.4588,1.69345 2,3c0.38269,0.92389 0.5405,3.0535 1,5c0.51373,2.17624 2.23172,3.92767 4,10c1.15277,3.95868 0.56952,4.133 2,8c0.77579,2.09717 2,3 3,7c1,4 2.91751,9.00342 3,10c0.50171,6.06204 2,7 2,9c0,1 0,3 0,4c0,2 0,4 0,7c0,4 0,5 0,6c0,2 0.38269,4.07611 0,5c-0.5412,1.30655 -0.08099,3.10699 -1,7c-0.51373,2.17624 -0.61731,4.07611 -1,5c-0.5412,1.30655 -1,2 -1,3c0,1 -0.67963,2.02582 -1,4c-0.50653,3.12143 -1.4588,3.69345 -2,5c-0.76538,1.84775 -0.4588,2.69345 -1,4c-0.76538,1.84775 -1,3 -1,4c0,1 -0.61731,3.07611 -1,4c-0.5412,1.30655 -0.29291,2.29291 -1,3c-0.70709,0.70709 -1,1 -1,2c0,0 -1,1 -1,1c0,0 0,1 -1,2c0,0 -0.23462,1.15225 -1,3c-0.5412,1.30655 -1.4588,0.69345 -2,2c-0.38269,0.92389 0.41422,1.58578 -1,3c-0.70709,0.70709 -0.61731,0.07611 -1,1c-0.5412,1.30655 -1,1 -1,1l-1,1l0,0l0,0"/>
  <polyline fill="none" stroke="#000" points="403,356 403,356 " id="svg_6" stroke-linecap="round"/>
  <path fill="none" id="svg_7" d="m310,361c0,0 0.39543,0.70709 1.35,0c0.95457,-0.70709 0.61938,-1.69345 1.35,-3c0.51663,-0.92389 0.83337,-3.07611 1.35,-4c0.73062,-1.30655 1.03981,-2.02676 1.35,-3c0.69354,-2.17624 1.96938,-1.69345 2.7,-3c1.03326,-1.84775 0,-2 0,-2c1.35,-1 1.35,-2 1.35,-2c0,-1 1.35,-2 1.35,-2c0,-1 0,-1 0,-2c0,0 0,-1 0,-1c1.35,0 1.35,0 1.35,-1c0,0 -0.95457,0.29291 0,1c0.95457,0.70709 1.35,1 1.35,1c1.35,1 2.7,3 2.7,4c0,0 0.83337,1.07611 1.35,2c0.73062,1.30655 2.7,2 4.05,4c0,0 1.35,2 2.7,3c0,0 1.35,1 1.35,2c0,0 1.35,0 1.35,0c0,1 0,1 0,1l0,0" stroke="#000"/>
  <path d="m41,22c0,1 0,1 0,4c0,3 0,10 0,17c0,8 1,18 1,21c0,4 0,8 0,12c0,4 0,9 0,14c0,4 0,7 0,12c0,1 0,2 0,3c0,2 0,3 0,4c0,3 0,4 0,4l0,0l0,-1l0,0" id="svg_35" stroke-width="4" stroke="#000" fill="none"/>
  <path d="m78,11c-1,0 -1,0 -1,0c-3,0 -5.02583,-0.32036 -7,0c-3.12144,0.50654 -5.96383,2.11587 -9,3c-3.95868,1.15277 -6.88496,2.27431 -9,3c-4.82302,1.65482 -14,4 -18,5c-4,1 -6,2 -7,2c-3,0 -5.02583,0.67963 -7,1c-3.12144,0.50654 -4.69344,1.45881 -6,2c-0.92388,0.38268 -1,0 -1,0c0,0 0,0 -1,0c0,0 0.70711,0.29289 0,1c-0.70711,0.70711 -3,0 -5,1l-2,0l0,1l-1,0" id="svg_36" stroke-width="4" stroke="#000" fill="none"/>
  <polyline stroke-linecap="round" id="svg_37" points="75,59 74,58 74,58 73,58 73,58 71,59 71,59 70,60 69,60 68,61 66,63 66,63 65,64 63,65 62,68 61,69 60,72 59,72 58,75 57,76 57,78 56,79 56,80 56,81 55,83 55,84 55,86 55,87 55,88 55,90 55,91 55,92 55,93 55,95 56,96 56,96 57,98 57,99 57,99 58,100 59,101 62,104 63,104 64,105 67,106 67,106 69,107 69,107 70,107 70,107 71,107 72,107 73,107 74,106 75,105 77,104 77,102 78,101 79,98 79,97 80,95 80,94 80,93 81,91 81,90 81,88 81,87 81,86 81,83 81,83 81,81 81,80 81,79 80,78 80,77 80,76 80,75 80,73 79,71 79,71 79,70 79,69 79,69 79,68 79,67 79,67 78,66 78,65 78,65 78,64 78,64 78,63 78,63 78,62 78,62 78,62 78,62 78,62 78,66 78,67 78,70 78,72 78,73 78,74 78,75 78,76 78,77 78,79 78,80 78,80 78,81 78,81 78,82 78,82 78,83 78,84 78,85 78,86 78,87 78,88 78,89 78,90 78,90 78,91 79,92 79,93 79,95 80,96 80,96 80,97 80,97 80,98 80,98 81,99 81,101 81,101 81,102 82,103 82,103 82,103 82,104 83,104 83,105 83,105 83,105 83,106 84,106 84,106 84,106 84,106 84,106 85,106 85,107 86,107 86,107 87,107 87,107 88,107 88,107 88,107 89,107 89,106 89,106 90,106 " opacity="NaN" stroke-width="4" stroke="#000" fill="none"/>
  <path d="m87,148c0,0 0,0 0,-1c0,0 0.4588,-0.69344 1,-2c0.76537,-1.84776 0.48626,-3.82375 1,-6c0.4595,-1.9465 0.4588,-3.69344 1,-5c0.38268,-0.92387 0,-2 0,-3c0,-1 0.29289,-1.29289 1,-2c0.70711,-0.70711 0,-3 0,-4c0,-1 0,-1 0,-2c0,-1 0,-2 0,-3c0,-1 0,-2 0,-3c0,-1 0,-1 0,-2c0,-1 0,-1 0,-3c0,-1 0.4588,-1.69344 1,-3c0.38268,-0.92388 0,-2 0,-2c0,-1 0,-2 0,-2c0,-2 0,-3 0,-3c0,-2 0.4588,-2.69344 1,-4c0.38268,-0.92388 0,-2 0,-3c0,-2 -1.41422,-2.58578 0,-4c0.70711,-0.70711 1,-1 1,-2c0,0 0,-1 0,-1c0,0 0,-1 0,-2c0,-1 0,-1 0,-2c0,0 0,-1 1,-2c0,0 0,-2 0,-2c0,-1 0,-1 0,-2c0,0 0,-1 0,-1c1,-1 1,-1 1,-2c0,0 0,-1 0,-1c0,0 1,-1 1,-1c0,-1 1,-2 1,-2c1,-1 2,-2 2,-2c1,0 1,0 2,-1c0,0 0,0 1,0c1,0 1,0 2,1c0,0 1,0 2,0c0,0 1,1 1,1c0,0 1,0 1,0c0,0 0,1 0,1c0,0 1,0 1,1c0,1 1,1 1,2c0,1 1,1 1,3c0,1 0,2 0,2c0,1 0.38268,2.07612 0,3c-0.5412,1.30656 -0.23463,1.15224 -1,3c-0.5412,1.30656 -1.29289,2.29289 -2,3c-0.70711,0.70711 0,2 0,3c0,0 -1,1 -1,2c0,0 -1,1 -1,1c0,1 -1,1 -1,2c0,0 0,0 0,0c-1,1 -1,1 -1,1c-1,0 -1,1 -2,1c0,0 0,1 -1,1c0,0 0,0 0,0c-1,0 -1,1 -1,1c0,0 -1,0 -1,0c0,0 0,0 -1,0c0,0 -1,1 -1,1c0,0 -1,0 -2,0c0,0 0,0 0,0c-1,0 -1,0 -1,0c0,0 -1,0 -1,1l0,0" id="svg_40" stroke-width="4" stroke="#000" fill="none"/>
  <path d="m118,112c0,-1 0,-1 0,-1c0,-1 -0.32037,-4.02583 0,-6c0.50654,-3.12144 1,-5 1,-9c0,-4 0,-6 0,-8c0,-4 0,-6 0,-9c0,-2 0,-3 0,-5c0,-1 0,-2 0,-3c0,-2 0.48626,-2.82375 1,-5c0.4595,-1.9465 0,-3 0,-5c0,-1 0,-3 0,-5c0,-2 0.48626,-5.82375 1,-8c0.22975,-0.97325 0,-3 0,-4c0,-1 0,-3 0,-3c0,-1 0,-3 0,-6c0,-1 0,-3 0,-5c0,0 1,-2 1,-2c0,-1 0,-3 0,-5c0,-1 0,-1 0,-2c0,-1 0,-2 0,-2c0,0 0,0 0,0c0,0 1,0 1,1c0,1 1,2 1,3c0,2 -0.22975,4.02675 0,5c0.51375,2.17625 1,4 1,5c0,1 1,2 1,3c0,0 0,1 0,1c0,1 1,3 1,4c0,0 -0.38269,1.07612 0,2c0.5412,1.30656 1,2 1,2c0,2 1,3 1,4c0,0 0.4588,0.69344 1,2c0.38269,0.92388 -0.70711,1.29289 0,2c0.70711,0.70711 1,2 1,2c0,1 1,2 1,3c0,0 0.4588,1.69344 1,3c0.38269,0.92388 0,2 0,2c1,1 1,2 1,2c0,1 0,1 1,2c0,0 0.29289,0.70711 1,0c0.70711,-0.70711 1.14429,-2.93414 2,-5c1.21014,-2.92156 1.14429,-3.93414 2,-6c1.21014,-2.92156 3.30322,-4.76935 4,-6c2.03145,-3.58792 2.4588,-5.69344 3,-7c0.38269,-0.92388 2,-3 2,-5c0,-1 1.4588,-2.69344 2,-4c0.38269,-0.92388 1.48625,-1.82375 2,-4c0.22975,-0.97325 1,-1 1,-3c0,0 0.29289,-0.29289 1,-1c0.70711,-0.70711 0,-1 1,-2c0,0 0,0 0,0c0,1 -0.51945,3.03874 -1,6c-0.50655,3.12144 -1.75256,6.01022 -2,9c-0.50171,6.06204 -0.85194,7.22836 -2,10c-0.5412,1.30656 -1.48625,1.82375 -2,4c-0.4595,1.9465 -0.4588,3.69344 -1,5c-0.76537,1.84776 -0.4588,3.69344 -1,5c-0.38269,0.92388 0.38269,3.07612 0,4c-0.5412,1.30656 -1,2 -1,4c0,4 -1,7 -1,9c0,1 0,3 0,5c0,2 -0.49345,2.87856 -1,6c-0.16019,0.98709 -1,8 -1,11c0,3 -0.48625,5.82375 -1,8c-0.4595,1.9465 0,4 0,5c0,1 0,1 0,2l-1,0l0,0l0,0" id="svg_42" stroke-width="4" stroke="#000" fill="none"/>
  <path d="m153,88c0,0 0,0 0,0c0,0 1,0 1,1c0,0 0,0 1,0c0,0 0,0 1,1c0,0 0,0 1,0c0,0 0,0 1,0c0,0 0.29289,0.70711 1,0c0.70711,-0.70711 1,-1 1,-1c0,0 1,-1 1,-1c0,0 0.61731,-0.07612 1,-1c0.5412,-1.30656 2,-2 2,-2c0,0 1,-1 2,-2c0,0 0,-1 0,-2c0,-1 1,-2 1,-3c0,-1 0,-2 0,-3c0,-1 -1,-1 -1,-2c0,-1 -2,-2 -2,-2c0,-1 -1,-1 -1,-2c0,0 -1,0 -1,0c-1,-1 -2,-2 -2,-2c0,0 -1,0 -1,0c0,0 0,0 -1,0c0,0 -1,1 -1,1c0,0 0,0 -1,0c0,0 0,0 -1,1c0,0 -1,0 -1,1c0,0 0.70711,0.29289 0,1c-0.70711,0.70711 -0.61731,1.07612 -1,2c-0.5412,1.30656 -1,2 -1,2c0,1 0,2 0,2c-1,2 -1,3 -1,4c0,1 0,2 -1,4c0,0 0,1 0,2c0,1 0,2 0,3c0,1 0,2 0,2c0,2 0,3 0,4c0,0 0,1 1,3c0,0 0,1 1,2c0,0 0.4588,0.69344 1,2c0.38269,0.92388 0.47427,1.14935 1,2c1.17557,1.90211 1.69344,2.4588 3,3c0.92387,0.38268 1.07613,0.61732 2,1c1.30656,0.5412 2,1 3,1c0,0 2,1 3,1c1,0 1,0 2,0c0,0 1,0 1,0c2,-1 2,-1 2,-1c1,-1 1.29289,-0.29289 2,-1c0.70711,-0.70711 0,-1 0,-1l1,0l0,-1" id="svg_43" stroke-width="4" stroke="#000" fill="none"/>
 </g>
</svg>