<svg width="200" height="160" xmlns="http://www.w3.org/2000/svg">

 <g>
  <title>Layer 1</title>
  <path fill="none" stroke="#000" id="svg_4" d="m336,364c0,0 0,0 0,0c1,1 1.4588,1.69345 2,3c0.38269,0.92389 0.5405,3.0535 1,5c0.51373,2.17624 2.23172,3.92767 4,10c1.15277,3.95868 0.56952,4.133 2,8c0.77579,2.09717 2,3 3,7c1,4 2.91751,9.00342 3,10c0.50171,6.06204 2,7 2,9c0,1 0,3 0,4c0,2 0,4 0,7c0,4 0,5 0,6c0,2 0.38269,4.07611 0,5c-0.5412,1.30655 -0.08099,3.10699 -1,7c-0.51373,2.17624 -0.61731,4.07611 -1,5c-0.5412,1.30655 -1,2 -1,3c0,1 -0.67963,2.02582 -1,4c-0.50653,3.12143 -1.4588,3.69345 -2,5c-0.76538,1.84775 -0.4588,2.69345 -1,4c-0.76538,1.84775 -1,3 -1,4c0,1 -0.61731,3.07611 -1,4c-0.5412,1.30655 -0.29291,2.29291 -1,3c-0.70709,0.70709 -1,1 -1,2c0,0 -1,1 -1,1c0,0 0,1 -1,2c0,0 -0.23462,1.15225 -1,3c-0.5412,1.30655 -1.4588,0.69345 -2,2c-0.38269,0.92389 0.41422,1.58578 -1,3c-0.70709,0.70709 -0.61731,0.07611 -1,1c-0.5412,1.30655 -1,1 -1,1l-1,1l0,0l0,0"/>
  <polyline fill="none" stroke="#000" points="403,356 403,356 " id="svg_6" stroke-linecap="round"/>
  <path fill="none" id="svg_7" d="m310,361c0,0 0.39543,0.70709 1.35,0c0.95457,-0.70709 0.61938,-1.69345 1.35,-3c0.51663,-0.92389 0.83337,-3.07611 1.35,-4c0.73062,-1.30655 1.03981,-2.02676 1.35,-3c0.69354,-2.17624 1.96938,-1.69345 2.7,-3c1.03326,-1.84775 0,-2 0,-2c1.35,-1 1.35,-2 1.35,-2c0,-1 1.35,-2 1.35,-2c0,-1 0,-1 0,-2c0,0 0,-1 0,-1c1.35,0 1.35,0 1.35,-1c0,0 -0.95457,0.29291 0,1c0.95457,0.70709 1.35,1 1.35,1c1.35,1 2.7,3 2.7,4c0,0 0.83337,1.07611 1.35,2c0.73062,1.30655 2.7,2 4.05,4c0,0 1.35,2 2.7,3c0,0 1.35,1 1.35,2c0,0 1.35,0 1.35,0c0,1 0,1 0,1l0,0" stroke="#000"/>
  <path d="m46,33c0,0 0,0 0,0c1,1 0.88413,2.96383 0,6c-1.15277,3.95868 -1,6 -2,10c-1,4 -1.49623,7.90779 -2,12c-0.24437,1.98502 0,3 -1,6c-1,3 -0.31074,5.08025 -1,8c-0.51374,2.17625 -1.49623,4.90778 -2,9c-0.36655,2.97752 -1,7 -1,10c0,2 -1,5 -1,9c0,2 -0.54049,7.0535 -1,9c-0.51374,2.17625 -1,3 -1,4c0,0 0,2 0,3c0,1 -1,2 -1,3c0,1 0,1 0,2c0,0 0,1 0,1l0,0l0,0" id="svg_44" stroke-width="3" stroke="#000" fill="none"/>
  <path d="m65,76c0,0 0,0 -1,0c0,0 0,-1 -1,-1c0,0 -1,0 -1,0c-1,0 -2,0 -2,0c0,0 -2,0 -2,0c0,0 -1,1 -2,1c0,0 -1.07612,0.61732 -2,1c-1.30656,0.5412 -1.29289,1.29289 -2,2c-0.70711,0.70711 -1,3 -2,4c0,0 -1,1 -1,2c0,1 -1,2 -1,3c0,1 -1,2 -1,3c0,2 -1,2 -1,4c0,1 0.76537,2.15224 0,4c-0.5412,1.30656 -1,2 -1,4c0,0 0,1 0,2c0,1 0,2 0,3c0,1 0,2 0,2c0,1 0,2 0,2c0,1 0,1 1,2c1,1 0.29289,2.29289 1,3c0.70711,0.70711 0.69344,1.4588 2,2c0.92388,0.38268 0.47427,0.14935 1,1c1.17557,1.90211 3,2 4,3c0,0 0,0 1,0c0,0 0,0 1,0c0,0 0,0 1,0c0,0 0,0 1,0c0,0 0,0 1,0c1,0 1,0 1,0c1,0 1,0 1,0c1,0 1,0 1,-1l0,0l0,0l0,0" id="svg_45" stroke-width="3" stroke="#000" fill="none"/>
  <path d="m85,80c0,0 0,0 -1,0c-1,0 -3,0 -4,0c-1,0 -1.69344,0.4588 -3,1c-0.92388,0.38268 -1.07612,-0.38268 -2,0c-1.30656,0.5412 -1.29289,1.29289 -2,2c-0.70711,0.70711 -0.61732,2.07612 -1,3c-0.54119,1.30656 -1,2 -2,4c0,0 -1,3 -1,5c0,1 -1,3 -1,5c0,0 0,1 0,2c0,1 -1,3 -1,5c0,1 0,2 0,3c0,1 0.45881,1.69344 1,3c0.38268,0.92388 0,2 0,3c0,0 1,1 1,1c0,1 0.29289,0.29289 1,1c0.70711,0.70711 0.29289,1.29289 1,2c0.70711,0.70711 1.29289,0.29289 2,1c0.70711,0.70711 1.29289,0.29289 2,1c0.70711,0.70711 2,0 2,0c1,1 2,1 2,1c1,0 2,0 2,0c0,0 2,0 3,0c0,0 0,0 1,0c1,0 2,0 3,-1c1,-1 2,-2 3,-3c1,-1 1.61732,-2.07612 2,-3c0.5412,-1.30656 2.1731,-2.85273 3,-4c1.30745,-1.814 1.23463,-2.15224 2,-4c0.5412,-1.30656 1,-2 2,-4c0,0 0,-1 0,-2c0,-1 0,-3 0,-5c0,-1 0,-1 0,-2c0,-1 -0.29289,-1.29289 -1,-2c-0.70711,-0.70711 -0.4588,-2.69344 -1,-4c-0.38268,-0.92388 0,-2 -1,-3c0,0 0.38268,-0.07612 0,-1c-0.5412,-1.30656 -0.69255,-1.186 -2,-3c-0.8269,-1.14727 -1,-1 -2,-2c0,0 -0.29289,-0.29289 -1,-1c-0.70711,-0.70711 -1,-1 -1,-1c-1,0 -1,0 -1,0c-1,0 -1,-1 -1,-1c0,0 -1,0 -1,0c0,0 -1,0 -1,0l-1,0l0,0" id="svg_46" stroke-width="3" stroke="#000" fill="none"/>
  <path stroke="#000" d="m131.19326,119.79577c0,0 0,0 0,-0.70423c0,-0.70423 0.46271,-1.32293 0.9377,-3.52113c0.15021,-0.69513 0.9377,-1.40845 0.9377,-2.8169c0,-0.70423 0.45596,-0.5801 0.9377,-2.11268c0.21544,-0.68539 0,-0.70423 0,-1.40845c0,-0.70423 0,-0.70423 0,-1.40845c0,-0.70423 0,-0.70423 0,-1.40845c0,-1.40845 0,-1.40845 0,-1.40845c0,-0.70423 0,-1.40845 0,-2.11268c0,0 0.21544,-0.72306 0,-1.40845c-0.48174,-1.53257 -0.9377,-1.40845 -0.9377,-2.8169c0,0 0,-1.40845 0,-2.11268c0,0 0,-0.70423 0,-1.40845c0,-1.40845 0.71768,-1.51567 0,-2.8169c-0.50748,-0.92012 -0.57885,-2.16628 -0.9377,-2.8169c-0.50748,-0.92012 -0.57885,-1.46206 -0.9377,-2.11268c-0.50748,-0.92012 -0.9377,-0.70423 -1.8754,-1.40845c-0.9377,-0.70423 -0.27464,-0.91049 -0.9377,-1.40845c-0.66305,-0.49796 -1.00907,-0.43473 -1.8754,-0.70423c-1.22516,-0.38112 -0.9377,-0.70423 -0.9377,-0.70423c0,-0.70423 -0.9377,-0.70423 -0.9377,-0.70423c0,0 0,0 -0.9377,0c0,0 -0.9377,0 -0.9377,0c-0.9377,0 -1.8754,0 -1.8754,0c-0.9377,0 -0.9377,0 -0.9377,0c-0.9377,0 -0.9377,0 -0.9377,0c-0.9377,0 -0.9377,0 -0.9377,0c0,0.70423 -0.9377,0.70423 -0.9377,0.70423c0,0.70423 -1.36792,1.19256 -1.8754,2.11268c-0.35884,0.65062 -0.9377,0.70423 -0.9377,0.70423c0,1.40845 -0.72226,2.13151 -0.9377,2.8169c-0.48173,1.53257 -1.36792,1.19256 -1.8754,2.11268c-0.35884,0.65062 0,1.40845 0,2.11268c0,0.70423 0.21544,1.42729 0,2.11268c-0.48173,1.53257 -0.9377,2.11268 -0.9377,2.8169c0,0.70423 -0.43022,1.19256 -0.9377,2.11268c-0.35884,0.65062 0.43088,1.44613 0,2.8169c-0.48173,1.53257 -0.9377,2.11268 -0.9377,2.8169c0,0.70423 -0.9377,1.40845 -0.9377,2.11268c0,0.70423 0,1.40845 0,1.40845c0,1.40845 -0.9377,2.11268 -0.9377,2.8169c0,0.70423 -0.27464,0.91049 -0.9377,1.40845c-0.66305,0.49796 0,1.40845 0,2.11268c0,0 -0.43022,0.48833 -0.9377,1.40845c-0.35884,0.65062 0,1.40845 0,1.40845c0,0.70423 0,1.40845 0,1.40845c-0.9377,0.70423 -0.9377,0.70423 -0.9377,0.70423c0,0 0,-0.70423 0,-0.70423c0,-2.11268 0.43022,-4.00946 0.9377,-4.92958c1.07652,-1.95186 0.43022,-3.30524 0.9377,-4.22535c0.71768,-1.30124 -0.21544,-2.13151 0,-2.8169c0.48173,-1.53257 1.39366,-2.69278 1.8754,-4.22535c0.21544,-0.68539 0.43022,-1.89679 0.9377,-2.8169c0.71768,-1.30124 1.40301,-2.04773 1.8754,-4.92958c0.11457,-0.69895 -0.35884,-2.16628 0,-2.8169c0.50748,-0.92012 0.9377,-1.40845 0.9377,-2.11268c0,-0.70423 -0.19706,-0.75946 0.9377,-2.8169c0.80239,-1.45483 0.9377,-1.40845 0.9377,-2.8169c0,-0.70423 0.9377,-1.40845 0.9377,-2.11268c0,-0.70423 0,-1.40845 0.9377,-2.8169c0,0 0,-1.40845 0,-1.40845c0,-0.70423 0.9377,-2.11268 0.9377,-2.11268c0,-1.40845 0,-2.11268 0,-3.52113c0,0 0,-0.70423 0,-1.40845c0,0 0,-0.70423 0,-0.70423l0,-0.70423l0,0l0.9377,0" id="svg_47" stroke-width="3" fill="none"/>
  <path d="m162,79c0,0 0,0 -1,0c0,0 0,0 -1,0c0,0 -2,0 -4,0c-1,0 -2,0 -3,0c0,0 -1,0 -2,1c0,0 -1.29289,-0.70711 -2,0c-0.70711,0.70711 -1,2 -1,2c-1,1 -1,3 -1,4c0,1 -0.48625,0.82375 -1,3c-0.22975,0.97325 0,3 0,3c0,2 0,2 0,3c0,1 0,2 0,4c0,0 1,0 1,1c0,0 1,0 1,0c1,1 1,1 3,1c0,0 0,0 2,0c0,0 1.0535,-0.4595 3,0c2.17625,0.51374 2,1 3,1c0,0 1,0 1,0c1,0 1.29289,-0.70711 2,0c0.70711,0.70711 0,1 1,1c0,0 1,0 1,1c0,0 0,0 0,0c1,1 1,1 1,2c0,1 1,1 1,2c0,1 0,2 0,3c0,1 0.38269,2.07612 0,3c-0.5412,1.30656 -1,2 -2,3c-1,1 -1,1 -2,2c-1,1 -2.02675,1.77025 -3,2c-2.17625,0.51374 -2,1 -4,1c-1,0 -2,0 -2,0c-1,1 -1,1 -2,1c0,0 -1,0 -1,0c-1,0 -1,0 -1,0c-1,0 -1,0 -2,0c0,0 0,-1 -1,-1c0,0 0,0 0,0c-1,0 -1,0 -2,0c0,0 0,0 -1,0l0,0l0,0l-1,0" id="svg_48" stroke-width="3" stroke="#000" fill="none"/>
 </g>
</svg>