<svg width="190" height="160" xmlns="http://www.w3.org/2000/svg">

 <g>
  <title>Layer 1</title>
  <path fill="none" stroke="#000" id="svg_4" d="m342,362c0,0 0,0 0,0c1,1 1.4588,1.69345 2,3c0.38269,0.92389 0.5405,3.0535 1,5c0.51373,2.17624 2.23172,3.92767 4,10c1.15277,3.95868 0.56952,4.133 2,8c0.77579,2.09717 2,3 3,7c1,4 2.91751,9.00342 3,10c0.50171,6.06204 2,7 2,9c0,1 0,3 0,4c0,2 0,4 0,7c0,4 0,5 0,6c0,2 0.38269,4.07611 0,5c-0.5412,1.30655 -0.08099,3.10699 -1,7c-0.51373,2.17624 -0.61731,4.07611 -1,5c-0.5412,1.30655 -1,2 -1,3c0,1 -0.67963,2.02582 -1,4c-0.50653,3.12143 -1.4588,3.69345 -2,5c-0.76538,1.84775 -0.4588,2.69345 -1,4c-0.76538,1.84775 -1,3 -1,4c0,1 -0.61731,3.07611 -1,4c-0.5412,1.30655 -0.29291,2.29291 -1,3c-0.70709,0.70709 -1,1 -1,2c0,0 -1,1 -1,1c0,0 0,1 -1,2c0,0 -0.23462,1.15225 -1,3c-0.5412,1.30655 -1.4588,0.69345 -2,2c-0.38269,0.92389 0.41422,1.58578 -1,3c-0.70709,0.70709 -0.61731,0.07611 -1,1c-0.5412,1.30655 -1,1 -1,1l-1,1l0,0l0,0"/>
  <polyline fill="none" stroke="#000" points="409,354 409,354 " id="svg_6" stroke-linecap="round"/>
  <path fill="none" id="svg_7" d="m316,359c0,0 0.39543,0.70709 1.35,0c0.95457,-0.70709 0.61938,-1.69345 1.35,-3c0.51663,-0.92389 0.83337,-3.07611 1.35,-4c0.73062,-1.30655 1.03981,-2.02676 1.35,-3c0.69354,-2.17624 1.96938,-1.69345 2.7,-3c1.03326,-1.84775 0,-2 0,-2c1.35,-1 1.35,-2 1.35,-2c0,-1 1.35,-2 1.35,-2c0,-1 0,-1 0,-2c0,0 0,-1 0,-1c1.35,0 1.35,0 1.35,-1c0,0 -0.95457,0.29291 0,1c0.95457,0.70709 1.35,1 1.35,1c1.35,1 2.7,3 2.7,4c0,0 0.83337,1.07611 1.35,2c0.73062,1.30655 2.7,2 4.05,4c0,0 1.35,2 2.7,3c0,0 1.35,1 1.35,2c0,0 1.35,0 1.35,0c0,1 0,1 0,1l0,0" stroke="#000"/>
  <path d="m48,36c0,0 0,-1 -1,-1c0,0 0,-1 0,-1c-1,-1 -2,-3 -3,-4c-1,-1 -1,-2 -2,-3c0,0 0,-1 -1,-1c0,0 0,-1 -1,-2c0,0 -0.29289,-0.29289 -1,-1c-0.70711,-0.70711 -2,0 -3,0c-1,0 -1,0 -3,0c0,0 -1,0 -1,0c-1,0 -2,1 -3,2c-1,1 -2.41886,1.41886 -4,3c-1.58114,1.58114 -0.61732,3.07612 -1,4c-0.5412,1.30656 -1.29289,1.29289 -2,2c-1.41421,1.41422 -0.14429,2.93414 -1,5c-1.21015,2.92156 -2,5 -2,6c0,2 -1,4 -1,6c0,2 -0.49346,3.87856 -1,7c-0.32036,1.97417 0,4 0,6c0,1 0,3 0,4c0,1 0,2 0,7c0,1 0.48626,2.82375 1,5c0.45951,1.9465 0,3 0,4c0,1 0.49346,1.87856 1,5c0.16018,0.98709 -0.76537,2.15224 0,4c0.5412,1.30656 1,2 1,3c0,1 0.48626,1.82375 1,4c0.22975,0.97325 0,2 0,2c1,1 2,3 2,3c0,1 0.61732,3.07612 1,4c0.5412,1.30656 1.69255,2.186 3,4c0.8269,1.14727 1,2 3,4c1,1 0.38687,1.91761 3,3c0.92388,0.38268 2.82375,2.48626 5,3c0.97325,0.22975 1.69344,0.4588 3,1c3.69552,1.53073 4.15224,0.76537 6,0c1.30656,-0.5412 2,-1 3,-2c1,-1 1,-1 2,-2c0,0 1,-3 2,-4c1,-1 1.1731,-1.85273 2,-3c1.30745,-1.814 0.71022,-3.04291 1,-4c1.04483,-3.45084 2.49346,-3.87856 3,-7c0.16018,-0.98709 0.77025,-3.02675 1,-4c0.51374,-2.17625 0.23463,-4.15224 1,-6c0.54119,-1.30656 0.83982,-5.01291 1,-6c0.50654,-3.12144 1,-4 1,-6c0,-2 0,-4 0,-7c0,-2 -1,-5 -1,-6c0,-3 -1,-3 -1,-4c0,-2 -1,-3 -1,-4c0,-1 -1,-3 -1,-3c0,0 0,-1 0,-1c-1,-1 -1,-2 -1,-2c-1,-1 -0.29289,-2.29289 -1,-3c-0.70711,-0.70711 -1,0 -1,-1c0,0 0.30745,-0.18601 -1,-2c-0.8269,-1.14727 -0.61732,-1.07612 -1,-2c-0.54119,-1.30656 -1,-2 -1,-2c-1,-1 -1.29289,-1.29289 -2,-2c-0.70711,-0.70711 -1,-2 -1,-2c0,-1 -1,-1 -1,-2c0,0 0.38268,-0.07612 0,-1c-0.54119,-1.30656 -1,-2 -1,-2c-1,0 -1,-1 -1,-2l-1,0l0,-1l0,0" id="svg_73" stroke-width="3" stroke="#000" fill="none"/>
  <path d="m71,109c0,1 0.29289,0.29289 1,1c0.70711,0.70711 1.87856,2.49346 5,3c1.97417,0.32037 8,1 9,1c0,0 1,0 1,0c0,0 0,0 1,-1c0,0 0.4588,0.30656 1,-1c0.38268,-0.92388 0.29289,-1.29289 1,-2c0.70711,-0.70711 0.29289,-1.29289 1,-2c0.70711,-0.70711 1.4588,-1.69344 2,-3c0.38268,-0.92388 0,-1 0,-2c0,-1 0,-2 1,-3c0,0 0,-1 0,-2c0,-1 0,-2 0,-3c0,-1 0,-2 0,-3c0,-1 0,-1 -1,-3c0,0 0.38268,-1.07612 0,-2c-0.5412,-1.30656 -1.61732,-3.07612 -2,-4c-0.5412,-1.30656 -0.61732,-2.07612 -1,-3c-0.5412,-1.30656 -1.61732,-2.07612 -2,-3c-0.5412,-1.30656 -1.69344,-2.4588 -3,-3c-0.92388,-0.38268 -1,-1 -2,-2c0,0 -1,0 -1,-1c0,0 -1,0 -1,0c0,0 -1,-1 -1,-1c-1,0 -1,0 -1,0c0,0 -1,0 -1,0c0,1 -0.29289,1.29289 -1,2c-0.70711,0.70711 -1,1 -1,1c-1,1 -1.29289,1.29289 -2,2c-1.41422,1.41422 -1,2 -1,2c0,1 -1,2 -1,2c0,1 -0.4588,0.69344 -1,2c-0.38268,0.92388 -1.29289,3.29289 -2,4c-1.41422,1.41422 0,3 0,3c-1,3 -1,4 -1,6c0,2 -1,4 -1,5c0,1 0,3 0,3c-1,2 -0.61732,3.07612 -1,4c-0.5412,1.30656 -0.23463,3.15224 -1,5c-0.5412,1.30656 -0.23463,2.15224 -1,4c-0.5412,1.30656 -1,3 -1,4c0,1 -1,4 -1,5c0,2 -0.4588,2.69344 -1,4c-0.38268,0.92387 0,2 0,4c0,1 -1,2 -1,3c0,1 0,1 0,1c0,1 0,1 0,1c-1,1 -1,2 -1,2c0,0 0,1 0,1c0,0 0,1 -1,2c0,0 0,1 0,1c0,0 0,1 0,1c0,0 0,0 0,1c0,0 0,0 -1,1l0,-1" id="svg_74" stroke-width="3" stroke="#000" fill="none"/>
  <path d="m112,95c0,0 1,0 1,1c0,0 1.82375,1.48626 4,2c0.97325,0.22975 2.29289,-0.70711 3,0c0.70711,0.70711 1,1 1,1c1,0 2,0 4,0c0,0 2,0 3,0c0,0 1,-1 2,-1c0,0 0.29289,-0.29289 1,-1c0.70711,-0.70711 1,0 1,-1c0,0 1,-1 1,-2c0,0 0,-1 0,-2c0,-1 0,-1 0,-1c-1,-1 -1,-2 -1,-2c0,-1 0.38269,-2.07612 0,-3c-0.5412,-1.30656 -0.09789,-1.82443 -2,-3c-0.85065,-0.52573 -1.29289,-0.29289 -2,-1c-0.70711,-0.70711 -1.29289,-1.29289 -2,-2c-0.70711,-0.70711 -0.29289,-0.29289 -1,-1c-0.70711,-0.70711 0.30656,-1.4588 -1,-2c-0.92387,-0.38268 -1,0 -2,-1c0,0 -1,0 -1,0c0,-1 -1,-1 -2,-1c-1,0 -1,0 -2,0c-1,0 -2,0 -3,-1c0,0 -1,0 -2,0c0,0 0.30656,0.4588 -1,1c-0.92388,0.38268 -1.29289,-0.70711 -2,0c-0.70711,0.70711 -1.29289,0.29289 -2,1c-0.70711,0.70711 -1.07612,1.61732 -2,2c-1.30656,0.5412 -0.29289,1.29289 -1,2c-0.70711,0.70711 -1,1 -1,1c-1,1 -1,2 -1,2c-1,2 -0.61732,3.07612 -1,4c-0.5412,1.30656 -1,1 -1,3c0,0 0,3 0,4c0,1 0.70711,2.29289 0,3c-0.70711,0.70711 -1,2 -1,3c0,1 0,2 0,4c0,1 0,1 0,2c0,0 1,2 1,2c0,1 0,2 1,3c0,0 -0.70711,1.29289 0,2c0.70711,0.70711 2,2 2,2c1,1 1.54916,2.95517 5,4c0.95709,0.28979 2,1 4,2c0,0 2,1 3,1c2,0 5.01291,-0.16018 6,0c3.12144,0.50655 4,1 5,1c1,0 2,0 3,0c0,0 0,0 1,-1c0,0 1,-1 1,-2c0,0 1.29289,-0.29289 2,-1c0.70711,-0.70711 1,-2 2,-3c0,0 -0.70711,-1.29289 0,-2c0.70711,-0.70711 1,-1 1,-2c0,-1 0,-2 0,-4c0,0 0,0 0,-1c0,-1 0,-1 0,-2c0,0 0,-1 0,-1l-1,0" id="svg_75" stroke-width="3" stroke="#000" fill="none"/>
  <path d="m167,121c0,0 0,0 0,0c0,0 0.48625,-0.82375 1,-3c0.22975,-0.97325 0,-2 1,-3c0,0 0,-1 0,-2c0,-1 -0.38269,-2.07612 0,-3c0.5412,-1.30656 1,-1 1,-2c0,0 0,-1 0,-1c0,-1 0,-2 0,-2c0,-1 0,-1 0,-1c0,-1 0,-2 0,-3c0,-1 -1,-2 -1,-3c0,-1 0,-2 -1,-3c0,0 0,-1 0,-2c0,0 -0.4588,-0.69344 -1,-2c-0.38269,-0.92388 -0.4588,-0.69344 -1,-2c-0.38269,-0.92388 0.70711,-1.29289 0,-2c-0.70711,-0.70711 -1,-1 -2,-2c0,0 0,-1 0,-1c-1,0 -1.29289,-0.29289 -2,-1c-0.70711,-0.70711 -1,-1 -1,-1c0,-1 -1,-1 -1,-1c-1,0 -1,0 -2,0c0,0 0,0 -1,0c0,0 -1,0 -1,0c0,0 -1,0 -1,0c-1,0 -2,1 -2,1c0,0 -1,0 -1,0c0,1 -1,1 -1,1c0,1 -1,1 -1,2c0,0 -1,0 -1,1c0,0 -1,1 -1,1c0,0 0,1 0,1c-1,1 -1,1 -1,2c0,1 0,1 -1,2c0,0 0,2 0,2c0,0 0,1 0,1c0,1 -0.29289,1.29289 -1,2c-0.70711,0.70711 0,2 0,2c0,2 0,3 0,4c0,0 0,1 0,1c0,2 -1,2 -1,3c0,1 0,1 0,2c0,1 0,1 0,2c0,0 0,1 0,2c0,1 0,1 0,1c0,1 0,1 0,1c0,1 0,2 0,2c0,1 0,1 0,2c0,0 0,1 0,1c0,1 0,1 0,1c0,1 0,1 0,1c0,1 0,1 0,2l0,0l0,0l0,0" id="svg_76" stroke-width="3" stroke="#000" fill="none"/>
 </g>
</svg>