<svg width="100" height="80" xmlns="http://www.w3.org/2000/svg">
 <g>
  <title>Layer 1</title>
  <path fill="none" stroke="#000" id="svg_4" d="m336,364c0,0 0,0 0,0c1,1 1.4588,1.69345 2,3c0.38269,0.92389 0.5405,3.0535 1,5c0.51373,2.17624 2.23172,3.92767 4,10c1.15277,3.95868 0.56952,4.133 2,8c0.77579,2.09717 2,3 3,7c1,4 2.91751,9.00342 3,10c0.50171,6.06204 2,7 2,9c0,1 0,3 0,4c0,2 0,4 0,7c0,4 0,5 0,6c0,2 0.38269,4.07611 0,5c-0.5412,1.30655 -0.08099,3.10699 -1,7c-0.51373,2.17624 -0.61731,4.07611 -1,5c-0.5412,1.30655 -1,2 -1,3c0,1 -0.67963,2.02582 -1,4c-0.50653,3.12143 -1.4588,3.69345 -2,5c-0.76538,1.84775 -0.4588,2.69345 -1,4c-0.76538,1.84775 -1,3 -1,4c0,1 -0.61731,3.07611 -1,4c-0.5412,1.30655 -0.29291,2.29291 -1,3c-0.70709,0.70709 -1,1 -1,2c0,0 -1,1 -1,1c0,0 0,1 -1,2c0,0 -0.23462,1.15225 -1,3c-0.5412,1.30655 -1.4588,0.69345 -2,2c-0.38269,0.92389 0.41422,1.58578 -1,3c-0.70709,0.70709 -0.61731,0.07611 -1,1c-0.5412,1.30655 -1,1 -1,1l-1,1l0,0l0,0"/>
  <polyline fill="none" stroke="#000" points="403,356 403,356 " id="svg_6" stroke-linecap="round"/>
  <path fill="none" id="svg_7" d="m310,361c0,0 0.39543,0.70709 1.35,0c0.95457,-0.70709 0.61938,-1.69345 1.35,-3c0.51663,-0.92389 0.83337,-3.07611 1.35,-4c0.73062,-1.30655 1.03981,-2.02676 1.35,-3c0.69354,-2.17624 1.96938,-1.69345 2.7,-3c1.03326,-1.84775 0,-2 0,-2c1.35,-1 1.35,-2 1.35,-2c0,-1 1.35,-2 1.35,-2c0,-1 0,-1 0,-2c0,0 0,-1 0,-1c1.35,0 1.35,0 1.35,-1c0,0 -0.95457,0.29291 0,1c0.95457,0.70709 1.35,1 1.35,1c1.35,1 2.7,3 2.7,4c0,0 0.83337,1.07611 1.35,2c0.73062,1.30655 2.7,2 4.05,4c0,0 1.35,2 2.7,3c0,0 1.35,1 1.35,2c0,0 1.35,0 1.35,0c0,1 0,1 0,1l0,0" stroke="#000"/>
  <path filter="url(#svg_12_blur)" stroke-width="3" d="m15,16c0,1 0.15277,2.04132 -1,6c-1.76827,6.07233 -3,9 -3,14c0,5 -1,6 -1,8c0,2 0,2 0,4c0,1 0,3 0,4l0,1l0,0" id="svg_2" stroke="#000" fill="none"/>
  <path filter="url(#svg_12_blur)" stroke-width="3" d="m35,17c0,0 -0.11587,-0.03617 -1,3c-1.15277,3.95868 -1.69125,7.0718 -3,12c-0.81166,3.05634 -1.48626,3.82375 -2,6c-0.45951,1.9465 0,3 0,5c0,2 0,4 0,5c0,2 0,3 0,3l0,1" id="svg_3" stroke="#000" fill="none"/>
  <path filter="url(#svg_12_blur)" stroke-width="3" d="m11,31c0,0 1,1 1,1c0,0 1,1 1,1c2,0 4,1 5,1c1,0 2,0 3,0c1,0 2,0 2,0c1,0 1,0 1,0c1,0 1,0 1,0c0,0 1,0 1,0c0,0 1,0 2,0c1,0 1,0 1,0c1,0 0.29289,-0.29289 1,-1c0.70711,-0.70711 2,0 2,0l0,0" id="svg_5" stroke="#000" fill="none"/>
  <path filter="url(#svg_12_blur)" stroke-width="3" d="m49,28c0,0 0,0 0,0c-1,0 -0.29289,0.29289 -1,1c-0.70711,0.70711 -2,0 -2,0c-1,1 -2.29289,1.29289 -3,2c-0.70711,0.70711 -1.45881,0.69344 -2,2c-0.38268,0.92388 -0.45881,0.69344 -1,2c-0.38268,0.92388 -1,2 -1,3c0,0 -1,1 -1,2c0,1 -1,3 -1,5c0,1 -0.45881,1.69344 -1,3c-0.38268,0.92388 0,2 0,4c0,0 -0.70711,1.29289 0,2c0.70711,0.70711 1,1 1,1c1,1 1,1 1,1c1,1 2,1 3,1c6,0 8,0 8,0c2,-1 2,-1 3,-2c1,-1 1.14935,-1.47427 2,-2c1.90211,-1.17557 1.29289,-3.29289 2,-4c0.70711,-0.70711 1,-2 1,-3c0,-1 0,-2 0,-3c0,-2 -0.45881,-2.69344 -1,-4c-0.38268,-0.92388 -0.45881,-1.69344 -1,-3c-0.38268,-0.92388 -0.61732,-2.07612 -1,-3c-1.08239,-2.61312 -2,-2 -2,-2c0,-1 -0.29289,-0.29289 -1,-1c-0.70711,-0.70711 -1,-2 -1,-2c0,0 -1,-1 -1,-1c0,0 0,0 0,0l-1,0l0,0" id="svg_8" stroke="#000" fill="none"/>
  <path filter="url(#svg_12_blur)" stroke-width="3" d="m78,17c0,0 0,0 1,-1c0,0 1,-1 1,-1c1,0 1,-1 2,-1c0,0 1,0 1,0c0,0 0,1 1,2c0,0 1,1 1,1c0,1 0,1 0,2c0,0 -1,2 -1,2c-1,1 -1.29289,1.29289 -2,2c-0.70711,0.70711 -1.07612,1.61732 -2,2c-2.61313,1.08239 -2,2 -3,3c0,0 -1,1 -1,1c0,0 0,0 -1,1c0,0 -1,1 -1,1c-1,0 -2,1 -2,1c-1,1 -1,1 -2,2c0,0 -1,2 -1,3c0,0 -0.61732,1.07612 -1,2c-0.5412,1.30656 -1,2 -1,2c-1,1 -1,2 -1,3c0,1 0,1 0,2c0,0 0,1 0,1c0,0 1,0 1,0c1,0 2,0 2,0c1,0 2.01291,-0.83982 3,-1c3.12144,-0.50654 4.07612,-0.61732 5,-1c1.30656,-0.5412 1.29289,-1.29289 2,-2c0.70711,-0.70711 2,-1 2,-1c1,-1 2,-1 3,-2l0,0l0,0l0,0" id="svg_11" stroke="#000" fill="none"/>
  <path filter="url(#svg_12_blur)" stroke-width="2" d="m73,59c0,0 0,0 0,0c-1,0 -1,-1 -1,-1c0,0 0,0 0,0c1,0 1,-1 1,-1c1,0 1,0 1,0c-1,0 -0.69255,1.186 -2,3c-0.8269,1.14727 -2,1 -2,1c0,1 -1,1 -1,1c0,-1 0,-1 0,-1c0,-1 0,-1 0,-2c0,0 1,-1 2,-1c0,0 1,0 0,0l0,0l0,1" id="svg_12" stroke="#000" fill="none"/>
  <path filter="url(#svg_13_blur)" d="m44,25c0,0 -0.38268,-0.07612 0,-1c0.54119,-1.30656 1,-4 2,-6c1,-2 2,-3 2,-4l0,0l0,-1" id="svg_13" stroke-width="3" stroke="#000" fill="none"/>
  <path filter="url(#svg_14_blur)" d="m56,31c1,-1 1.25935,-1.77062 3,-4c3.58844,-4.59599 5.31069,-7.31731 9,-16c1.6124,-3.79475 2,-5 3,-6l0,0" id="svg_14" stroke-width="3" stroke="#000" fill="none"/>
 </g>
</svg>