<svg width="300" height="160" xmlns="http://www.w3.org/2000/svg">

 <g>
  <title>Layer 1</title>
  <path fill="none" stroke="#000" id="svg_4" d="m336,364c0,0 0,0 0,0c1,1 1.4588,1.69345 2,3c0.38269,0.92389 0.5405,3.0535 1,5c0.51373,2.17624 2.23172,3.92767 4,10c1.15277,3.95868 0.56952,4.133 2,8c0.77579,2.09717 2,3 3,7c1,4 2.91751,9.00342 3,10c0.50171,6.06204 2,7 2,9c0,1 0,3 0,4c0,2 0,4 0,7c0,4 0,5 0,6c0,2 0.38269,4.07611 0,5c-0.5412,1.30655 -0.08099,3.10699 -1,7c-0.51373,2.17624 -0.61731,4.07611 -1,5c-0.5412,1.30655 -1,2 -1,3c0,1 -0.67963,2.02582 -1,4c-0.50653,3.12143 -1.4588,3.69345 -2,5c-0.76538,1.84775 -0.4588,2.69345 -1,4c-0.76538,1.84775 -1,3 -1,4c0,1 -0.61731,3.07611 -1,4c-0.5412,1.30655 -0.29291,2.29291 -1,3c-0.70709,0.70709 -1,1 -1,2c0,0 -1,1 -1,1c0,0 0,1 -1,2c0,0 -0.23462,1.15225 -1,3c-0.5412,1.30655 -1.4588,0.69345 -2,2c-0.38269,0.92389 0.41422,1.58578 -1,3c-0.70709,0.70709 -0.61731,0.07611 -1,1c-0.5412,1.30655 -1,1 -1,1l-1,1l0,0l0,0"/>
  <polyline fill="none" stroke="#000" points="403,356 403,356 " id="svg_6" stroke-linecap="round"/>
  <path fill="none" id="svg_7" d="m310,361c0,0 0.39543,0.70709 1.35,0c0.95457,-0.70709 0.61938,-1.69345 1.35,-3c0.51663,-0.92389 0.83337,-3.07611 1.35,-4c0.73062,-1.30655 1.03981,-2.02676 1.35,-3c0.69354,-2.17624 1.96938,-1.69345 2.7,-3c1.03326,-1.84775 0,-2 0,-2c1.35,-1 1.35,-2 1.35,-2c0,-1 1.35,-2 1.35,-2c0,-1 0,-1 0,-2c0,0 0,-1 0,-1c1.35,0 1.35,0 1.35,-1c0,0 -0.95457,0.29291 0,1c0.95457,0.70709 1.35,1 1.35,1c1.35,1 2.7,3 2.7,4c0,0 0.83337,1.07611 1.35,2c0.73062,1.30655 2.7,2 4.05,4c0,0 1.35,2 2.7,3c0,0 1.35,1 1.35,2c0,0 1.35,0 1.35,0c0,1 0,1 0,1l0,0" stroke="#000"/>
  <path d="m37,26c0,1 0,1 0,2c0,3 0.96109,6.07748 0,12c-0.50654,3.12144 -1,10 -1,14c0,8 0,12 0,16c0,2 0,5 0,8c0,3 0,4 0,6c0,2 0,6 0,9c0,3 1,6 1,9c0,2 0,4 0,5c0,2 1,3 1,5c0,1 0,2 0,3c0,1 -0.70711,2.29289 0,3c0.70711,0.70711 1,1 1,3c0,2 0,3 0,5c0,1 0,3 0,5c0,1 0,3 0,4c0,0 0,1 0,2c0,0 0,0 0,1l0,0l0,1l0,0" id="svg_55" stroke-width="3" stroke="#000" fill="none"/>
  <path d="m77,134c0,0 0.22975,-0.02675 0,-1c-0.51374,-2.17625 -1.48626,-3.82375 -2,-6c-0.45951,-1.9465 -1,-4 -1,-5c0,-2 0.03145,-4.41207 -2,-8c-0.69678,-1.23065 -1.33749,-3.31001 -3,-6c-0.7435,-1.203 -1.69255,-3.186 -3,-5c-0.8269,-1.14727 -1.69255,-3.186 -3,-5c-0.8269,-1.14727 -1.29289,-2.29289 -2,-3c-0.70711,-0.70711 -1.18601,-0.69255 -3,-2c-1.14727,-0.8269 -1.69344,-2.4588 -3,-3c-0.92388,-0.38268 -2,-2 -2,-2c-1,0 -1.29289,-0.29289 -2,-1c-1.41421,-1.41422 -2,-1 -3,-1c-1,0 -1,0 -3,0c0,0 -1,-1 -1,-1c0,0 -1,0 -1,0c0,0 0,0 -1,0c0,0 0,0 -1,0c0,0 -1,0 -2,0c0,0 -1,0 -1,0c0,0 -0.29289,-0.70711 -1,0c-0.70711,0.70711 0,1 0,1l0,0l0,0" id="svg_56" stroke-width="3" stroke="#000" fill="none"/>
  <path d="m38,25c0,1 0,1 0,1c1,0 1,0 1,0c0,0 2.15224,-0.23463 4,-1c1.30656,-0.5412 2,-1 5,-2c0,0 2,0 3,0c1,0 2,0 2,0c1,1 1.09789,1.82443 3,3c0.85065,0.52573 1.1731,0.85273 2,2c1.30745,1.81399 0.23463,2.15224 1,4c0.54119,1.30656 1,1 1,3c0,2 0,4 0,6c0,5 0,6 0,9c0,2 0,4 0,5c0,2 0,2 0,4c0,2 -1,4 -1,4c0,2 -0.29289,2.29289 -1,3c-0.70711,0.70711 -0.45881,1.69344 -1,3c-0.38268,0.92388 -1.61732,2.07612 -2,3c-0.54119,1.30656 -2,2 -3,3c-1,1 -1.69344,1.4588 -3,2c-0.92388,0.38268 -3,1 -4,2c0,0 -0.69344,0.4588 -2,1c-0.92388,0.38268 -2,1 -2,1c-1,0 -1.29289,0.29289 -2,1c-0.70711,0.70711 -1,0 -2,0c0,0 0,0 0,1l0,0" id="svg_57" stroke-width="3" stroke="#000" fill="none"/>
  <path d="m86,97c0,0 0,0 0,0c1,0 3,1 5,1c1,0 3,-1 4,-1c0,0 -0.70711,-0.29289 0,-1c0.70711,-0.70711 1.29289,-0.29289 2,-1c0.70711,-0.70711 0.29289,-2.29289 1,-3c0.70711,-0.70711 1,-1 1,-2c0,-1 0,-1 0,-2c0,0 -1,-1 -2,-2c-1,-1 -2,-1 -3,-2c-1,-1 -1,-1 -2,-1c0,0 0,0 -1,0c0,0 -1.02675,0.22975 -2,0c-2.17625,-0.51374 -3,-1 -3,-1c0,0 -1,0 -1,0c-1,0 -2,1 -2,1c-2,1 -3.18601,1.69255 -5,3c-1.14727,0.8269 -1.45881,0.69344 -2,2c-0.38268,0.92388 -0.83982,2.01291 -1,3c-0.50654,3.12144 -1,4 -1,4c0,2 0,3 0,4c0,1 -0.38268,3.07612 0,4c0.54119,1.30656 0.77025,3.02675 1,4c0.51374,2.17625 1.48626,2.82375 2,5c0.22975,0.97325 1.19028,1.88152 3,5c1.12234,1.934 2.29289,4.29289 3,5c0.70711,0.70711 3,2 3,2c1,1 2.797,2.2565 4,3c2.68999,1.66251 4,2 5,2c0,0 2,0 3,0c1,0 1,0 1,0c1,0 1,0 1,-1l0,0" id="svg_58" stroke-width="3" stroke="#000" fill="none"/>
  <path d="m125,94c0,0 0,0 0,-1c0,-1 0,-2 0,-3c0,-1 0,-3 0,-3c0,-1 0,-1 0,-1c0,-1 0,-1 -1,-2c0,0 0,-1 0,-1c-1,-1 -0.29289,-1.29289 -1,-2c-0.70711,-0.70711 -1,-1 -1,-1c0,0 -1,-1 -1,-1c-1,0 -1,0 -1,0c0,-1 -1,-1 -1,-1c0,0 -1,0 -1,0c0,0 0,0 -1,0c0,0 0,0 0,0c-1,0 -1,0 -1,0c0,0 -1,0 -1,1c0,0 0,0 0,0c0,0 -1,0 -1,0c0,0 0,0 -1,1c0,0 0,0 0,0c-1,1 -1,1 -1,1c0,0 -1,1 -1,1c0,0 0,0 0,0c-1,1 -1,1 -1,1c0,1 -1,1 -1,1c0,0 -0.29289,0.29289 -1,1c-0.70711,0.70711 0,1 -1,2c0,0 0,0 0,1c0,0 -1,1 -1,1c0,1 0,1 -1,3c0,0 0,0 0,1c0,0 -0.70711,1.29289 0,2c0.70711,0.70711 0.61732,1.07612 1,2c0.5412,1.30656 1,1 1,3c0,0 0.4588,-0.30656 1,1c0.38268,0.92388 0.29289,1.29289 1,2c0.70711,0.70711 1,1 1,2c0,0 0.29289,0.29289 1,1c0.70711,0.70711 2,1 2,1c0,0 2,0 2,0c0,0 1,0 2,0c0,0 1,0 1,-1c0,0 0,0 1,0c0,0 0,0 0,0c1,0 1,-1 1,-1c0,0 1,0 1,0c0,0 0,0 1,0c0,0 0,0 0,0c0,0 1,0 1,0c0,0 -0.70711,0.29289 0,1c0.70711,0.70711 1,0 1,0c0,0 1,1 1,1c0,0 0.29289,-0.70711 1,0c0.70711,0.70711 0,1 0,1c0,0 1,1 1,1c0,1 0,1 0,1c0,1 0,2 0,2c0,1 0,2 0,3c0,1 -1,2 -1,2c-1,3 -1.48626,2.82375 -2,5c-0.22975,0.97325 0,2 0,2c0,0 0,1 0,1c-1,0 -1,1 -1,1c-1,1 -2,1 -2,1c0,1 -1,1 -1,1c0,0 -1,0 -1,0c-1,1 -2,1 -3,1c-1,0 -1,1 -2,1c0,0 0,0 -1,0c0,0 -1,0 -2,0c0,0 -1,0 -1,0c-1,0 -1.07612,-0.61731 -2,-1c-1.30656,-0.5412 -2.29289,-0.29289 -3,-1c-0.70711,-0.70711 0,-1 -1,-1c0,0 0,0 0,0c0,-1 0,-1 -1,-2c0,0 0,0 0,-1l0,0l0,0" id="svg_59" stroke-width="3" stroke="#000" fill="none"/>
  <path d="m134,26c0,0 0,1 0,1c0,4 0,9 0,15c0,3 0.49622,7.90779 1,12c0.48873,3.97003 1,10 1,13c0,3 -0.91901,6.107 0,10c0.51374,2.17625 1,3 1,5c0,3 0.22975,6.02675 0,7c-0.51374,2.17625 -1,2 -1,4c0,2 -1,3 -1,5c0,1 -1,3 -1,4c0,1 -1,3 -1,3c0,1 0.16018,2.01291 0,3c-0.50654,3.12144 -0.61732,4.07612 -1,5c-0.5412,1.30656 -1,5 -1,6c0,2 -1,3 -1,4c0,1 0,3 0,3c0,0 0,1 0,1c0,0 -1,1 -1,1c0,1 0,1 0,1c0,0 0,1 0,1c0,0 0,0 0,1l0,0l0,0l0,1" id="svg_62" stroke-width="3" stroke="#000" fill="none"/>
  <path d="m149,129c0,0 -0.16018,-0.01291 0,-1c0.50654,-3.12144 2.4588,-4.69344 3,-6c1.14806,-2.77164 1.5405,-7.0535 2,-9c0.51375,-2.17625 1,-4 1,-4c0,-2 -0.4595,-3.0535 0,-5c0.51375,-2.17625 1,-3 1,-4c0,-1 -0.23463,-2.15224 -1,-4c-0.5412,-1.30656 -0.23463,-2.15224 -1,-4c-1.0824,-2.61313 -2.4588,-2.69344 -3,-4c-0.38269,-0.92388 -1,-2 -1,-2c0,-1 -1,-1 -1,-1c0,-1 -1,-2 -2,-2c0,0 0.70711,-0.29289 0,-1c-0.70711,-0.70711 -0.69344,-0.4588 -2,-1c-0.92388,-0.38268 -1,0 -1,0c0,0 0,0 -1,-1c0,0 -1,0 -1,0c-1,0 -2,0 -2,0c0,0 -1,0 -1,1c0,0 -1,0 -1,1c0,0 0.70711,0.29289 0,1c-0.70711,0.70711 -1,0 -1,0c0,1 0,1 0,2c0,1 0,1 -1,1l0,1l0,0" id="svg_63" stroke-width="3" stroke="#000" fill="none"/>
  <path d="m166,81c0,1 0,1 0,1c0,0 0,1 0,2c0,1 -0.4588,2.69344 -1,4c-0.38269,0.92388 -1,5 -1,6c0,1 -0.4588,1.69344 -1,3c-0.38269,0.92388 0,1 0,2c0,1 -1,3 -1,4c0,1 -1,1 -1,3c0,1 0,1 0,2c0,1 0,2 0,4c0,1 0.4588,1.69344 1,3c0.38269,0.92388 0,2 0,2c1,2 1,4 1,5c0,0 1,1 1,2c0,1 1,2 1,2c0,0 0.29289,0.29289 1,1c0.70711,0.70711 0,1 0,1c0,0 1,0 1,-1c0,0 1,0 1,0c0,-1 1,-1 1,-1c1,-1 0.29289,-1.29289 1,-2c0.70711,-0.70711 1.29289,-0.29289 2,-1c0.70711,-0.70711 0,-1 1,-2c0,0 -0.38269,-1.07612 0,-2c0.5412,-1.30656 1.29289,-1.29289 2,-2c0.70711,-0.70711 0,-1 0,-2c0,0 1,-1 1,-2c0,-1 1,-3 1,-3c0,-1 0,-2 1,-3c0,0 0.4588,-1.69344 1,-3c0.38269,-0.92388 0.4588,-2.69344 1,-4c0.38269,-0.92388 0,-2 0,-2c1,-1 1,-2 1,-2c0,-2 0.48625,-1.82375 1,-4c0.22975,-0.97325 -0.70711,-1.29289 0,-2c0.70711,-0.70711 1,-1 1,-1c0,-1 0,-2 0,-2c0,0 0,-1 0,-1c0,0 0,-1 0,-1l0,0l1,0" id="svg_64" stroke-width="3" stroke="#000" fill="none"/>
  <path d="m205,53c0,0 0,0 0,0c0,-1 -0.22975,-2.02675 0,-3c0.51375,-2.17625 1,-3 1,-4c0,-1 0,-1 0,-2c0,-1 0,-1 0,-1c0,-1 0,-1 0,-1c-1,-1 -1,-1 -1,-2c0,0 -1,-1 -1,-1c0,0 -0.07613,-0.61732 -1,-1c-1.30656,-0.54119 -2.29289,-0.29289 -3,-1c-0.70711,-0.70711 -1,-1 -1,-1c-1,0 -1,0 -1,0c-1,0 -2,0 -2,0c0,0 -1,0 -1,0c0,1 0,1 0,1c-1,1 -1.4588,1.69344 -2,3c-0.38269,0.92388 -1,2 -1,3c0,1 -1,2 -1,4c0,1 0,2 0,3c0,1 0,1 0,2c0,1 0,2 0,4c0,1 0,2 0,4c0,1 0,2 0,3c0,1 0.48625,1.82375 1,4c0.4595,1.9465 0,3 0,4c0,2 0,3 0,4c0,1 0,3 0,4c0,1 0,2 0,3c0,1 0,2 0,3c0,2 0,3 0,4c0,1 0,2 0,3c0,2 0,3 0,4c0,0 0,2 0,3c0,0 0,0 0,1c0,1 0,1 0,2c0,1 0,1 0,2c0,1 0,1 0,1c0,1 0,2 0,3c0,0 -1,1 -1,2c0,1 0,1 0,1c0,2 -1,3 -1,3c0,1 0,2 0,3c0,1 0,2 0,2c-1,1 -1,2 -1,2c0,1 0,2 0,2c0,0 0,1 0,1c0,1 0,1 0,1c-1,1 -1,2 -1,3c0,0 -0.4588,-0.30656 -1,1c-0.38269,0.92387 0,1 0,2c0,0 0,1 0,1c0,0 0,1 0,1l-1,-1l0,-1" id="svg_65" stroke-width="3" stroke="#000" fill="none"/>
  <path d="m183,69c0,0 1,-1 1,-1c0,0 1,1 2,1c1,0 2,0 3,0c0,0 1,0 1,0c0,0 1,0 1,0c0,0 1,0 2,0c0,0 0.29289,-0.29289 1,-1c0.70711,-0.70711 1,0 1,0c0,0 1,0 1,0c0,0 0,0 1,0l0,0l0,0" id="svg_66" stroke-width="3" stroke="#000" fill="none"/>
  <path d="m233,38c0,1 0,1 0,3c0,4 0,6 0,11c0,1 -1,3 -1,5c0,2 -0.4588,3.69344 -1,5c-0.76537,1.84776 0.4595,3.0535 0,5c-0.51375,2.17625 -1,3 -1,4c0,2 -1,4 -1,4c0,2 1.14806,3.22836 0,6c-0.5412,1.30656 -1,2 -1,3c0,1 0,2 0,3c0,1 -1,2 -1,3c0,1 0,2 0,2c0,1 0,2 0,2c0,1 0.38269,1.07612 0,2c-0.5412,1.30656 -1,2 -1,3c0,1 0.38269,1.07612 0,2c-0.5412,1.30656 -1,1 -1,2c0,2 0,2 0,3c0,1 -0.4588,1.69344 -1,3c-0.76537,1.84776 0.22975,3.02675 0,4c-0.51375,2.17625 -1,4 -1,5c0,0 -1,1 -1,1c0,0 0,1 0,1c0,0 0,1 0,1c0,0 0,1 0,1c0,1 0,1 0,2c0,1 0,1 0,2c0,0 0,1 0,1c0,0 0,1 0,1c1,1 1,1 1,1c0,1 0,1 0,1c0,0 0,0 1,0c0,0 0,1 0,1c0,0 1,0 1,0c0,0 1,0 1,0c0,0 0,0 1,0c0,0 0,0 1,0c0,0 0,0 0,0c1,0 1,-1 1,-1l0,0" id="svg_67" stroke-width="3" stroke="#000" fill="none"/>
  <path d="m250,104c0,0 0,0 0,0c0,0 0.29289,-0.70711 1,0c0.70711,0.70711 0,1 0,1c1,0 1,0 1,0c0,0 1,0 1,0c1,0 1,0 1,0c1,-1 1,-1 1,-1c1,-1 1,-1 2,-1c0,0 1,-1 1,-1c1,-1 1.29289,-0.29289 2,-1c0.70711,-0.70711 0,-1 0,-1c1,-2 1,-3 1,-3c0,-1 0,-2 0,-2c0,-1 0,-2 0,-2c0,-2 -1,-3 -1,-3c-1,-1 -1,-1 -2,-2c0,0 0,0 -1,-2c0,0 -1,0 -2,-1c0,0 -2,-2 -2,-2c-1,0 -2.07613,-0.61732 -3,-1c-1.30656,-0.5412 -2,-1 -2,-1c-1,0 -1,0 -2,0c-1,0 -2,0 -3,0c-1,0 -3,1 -3,1c-2,1 -1.29289,1.29289 -2,2c-0.70711,0.70711 -0.47427,0.14935 -1,1c-1.17557,1.90211 -2,2 -2,3c0,0 -1,2 -1,2c0,2 0,3 0,4c0,2 0,4 0,5c0,0 0,2 0,3c0,0 0,2 0,3c0,2 0,3 0,5c0,1 -0.38269,2.07612 0,3c0.5412,1.30656 0.61731,2.07612 1,3c0.5412,1.30656 0.29289,2.29289 1,3c0.70711,0.70711 1,1 1,1c0,0 1,1 1,1c0,0 2,1 2,1c1,1 2,1 2,1c1,0 2,1 2,1c1,0 2,0 3,0c0,0 1,1 1,1c0,0 1,0 1,0c1,0 1,0 2,-1c0,0 1,0 1,0c1,0 1,0 2,0c1,0 2,1 3,1c0,0 0,0 0,0c1,-1 1,-1 1,-1c0,0 0,0 0,0c0,0 1,0 1,-1c0,0 0,0 0,0c0,0 0,-1 0,-1c0,0 0,0 1,-1c0,0 0,0 0,0c0,-1 0,-1 1,-2c0,0 0,0 0,-1c0,-1 1,-1 1,-1c0,-1 0.4588,-1.69344 1,-3c0.38269,-0.92388 0,-1 1,-3c0,0 0.4588,-0.69344 1,-2c0.38269,-0.92388 0.4588,-0.69344 1,-2c0.38269,-0.92388 0,-2 1,-2l0,-2l0,-1l1,-1" id="svg_68" stroke-width="3" stroke="#000" fill="none"/>
  <path d="m177,125c0,0 0,-1 0,-2c0,-1 0,-2 0,-4c0,-1 0,-3 0,-4c0,-1 0.29289,-1.29289 1,-2c1.41422,-1.41422 0,-3 0,-3c0,-1 0,-1 0,-1c0,0 0,0 0,-1l-1,0l0,0" id="svg_70" stroke-width="3" stroke="#000" fill="none"/>
  <path d="m225,53c0,0 0,0 0,0c0,-1 -0.22975,-2.02675 0,-3c0.51375,-2.17625 1,-3 1,-4c0,-1 0,-1 0,-2c0,-1 0,-1 0,-1c0,-1 0,-1 0,-1c-1,-1 -1,-1 -1,-2c0,0 -1,-1 -1,-1c0,0 -0.07613,-0.61732 -1,-1c-1.30656,-0.54119 -2.29289,-0.29289 -3,-1c-0.70711,-0.70711 -1,-1 -1,-1c-1,0 -1,0 -1,0c-1,0 -2,0 -2,0c0,0 -1,0 -1,0c0,1 0,1 0,1c-1,1 -1.4588,1.69344 -2,3c-0.38269,0.92388 -1,2 -1,3c0,1 -1,2 -1,4c0,1 0,2 0,3c0,1 0,1 0,2c0,1 0,2 0,4c0,1 0,2 0,4c0,1 0,2 0,3c0,1 0.48625,1.82375 1,4c0.4595,1.9465 0,3 0,4c0,2 0,3 0,4c0,1 0,3 0,4c0,1 0,2 0,3c0,1 0,2 0,3c0,2 0,3 0,4c0,1 0,2 0,3c0,2 0,3 0,4c0,0 0,2 0,3c0,0 0,0 0,1c0,1 0,1 0,2c0,1 0,1 0,2c0,1 0,1 0,1c0,1 0,2 0,3c0,0 -1,1 -1,2c0,1 0,1 0,1c0,2 -1,3 -1,3c0,1 0,2 0,3c0,1 0,2 0,2c-1,1 -1,2 -1,2c0,1 0,2 0,2c0,0 0,1 0,1c0,1 0,1 0,1c-1,1 -1,2 -1,3c0,0 -0.4588,-0.30656 -1,1c-0.38269,0.92387 0,1 0,2c0,0 0,1 0,1c0,0 0,1 0,1l-1,-1l0,-1" id="svg_71" stroke-width="3" stroke="#000" fill="none"/>
  <path d="m205,69c0,0 1,-1 1,-1c0,0 1,1 2,1c1,0 2,0 3,0c0,0 1,0 1,0c0,0 1,0 1,0c0,0 1,0 2,0c0,0 0.29289,-0.29289 1,-1c0.70711,-0.70711 1,0 1,0c0,0 1,0 1,0c0,0 0,0 1,0l0,0l0,0" id="svg_72" stroke-width="3" stroke="#000" fill="none"/>
 </g>
</svg>