<svg width="200" height="160" xmlns="http://www.w3.org/2000/svg">

 <g>
  <title>Layer 1</title>
  <path fill="none" stroke="#000" id="svg_4" d="m336,364c0,0 0,0 0,0c1,1 1.4588,1.69345 2,3c0.38269,0.92389 0.5405,3.0535 1,5c0.51373,2.17624 2.23172,3.92767 4,10c1.15277,3.95868 0.56952,4.133 2,8c0.77579,2.09717 2,3 3,7c1,4 2.91751,9.00342 3,10c0.50171,6.06204 2,7 2,9c0,1 0,3 0,4c0,2 0,4 0,7c0,4 0,5 0,6c0,2 0.38269,4.07611 0,5c-0.5412,1.30655 -0.08099,3.10699 -1,7c-0.51373,2.17624 -0.61731,4.07611 -1,5c-0.5412,1.30655 -1,2 -1,3c0,1 -0.67963,2.02582 -1,4c-0.50653,3.12143 -1.4588,3.69345 -2,5c-0.76538,1.84775 -0.4588,2.69345 -1,4c-0.76538,1.84775 -1,3 -1,4c0,1 -0.61731,3.07611 -1,4c-0.5412,1.30655 -0.29291,2.29291 -1,3c-0.70709,0.70709 -1,1 -1,2c0,0 -1,1 -1,1c0,0 0,1 -1,2c0,0 -0.23462,1.15225 -1,3c-0.5412,1.30655 -1.4588,0.69345 -2,2c-0.38269,0.92389 0.41422,1.58578 -1,3c-0.70709,0.70709 -0.61731,0.07611 -1,1c-0.5412,1.30655 -1,1 -1,1l-1,1l0,0l0,0"/>
  <polyline fill="none" stroke="#000" points="403,356 403,356 " id="svg_6" stroke-linecap="round"/>
  <path fill="none" id="svg_7" d="m310,361c0,0 0.39543,0.70709 1.35,0c0.95457,-0.70709 0.61938,-1.69345 1.35,-3c0.51663,-0.92389 0.83337,-3.07611 1.35,-4c0.73062,-1.30655 1.03981,-2.02676 1.35,-3c0.69354,-2.17624 1.96938,-1.69345 2.7,-3c1.03326,-1.84775 0,-2 0,-2c1.35,-1 1.35,-2 1.35,-2c0,-1 1.35,-2 1.35,-2c0,-1 0,-1 0,-2c0,0 0,-1 0,-1c1.35,0 1.35,0 1.35,-1c0,0 -0.95457,0.29291 0,1c0.95457,0.70709 1.35,1 1.35,1c1.35,1 2.7,3 2.7,4c0,0 0.83337,1.07611 1.35,2c0.73062,1.30655 2.7,2 4.05,4c0,0 1.35,2 2.7,3c0,0 1.35,1 1.35,2c0,0 1.35,0 1.35,0c0,1 0,1 0,1l0,0" stroke="#000"/>
  <path d="m42,27c0,1 0,1 0,1c0,2 -0.61702,6.74708 -2,11c-1.88106,5.7846 0.45429,10.15776 -2,26c-0.63122,4.0745 -1,8 -1,12c0,3 -1,5 -1,7c0,2 0,4 0,6c0,2 -0.48626,2.82375 -1,5c-0.45951,1.9465 0,5 0,7c0,1 -1,4 -1,8c0,3 0,4 0,5c0,1 0,2 0,3c0,1 0,2 0,3c0,0 0,2 0,2c0,1 0,2 0,3c0,1 0,1 0,4c0,1 -1,2 -1,3c0,1 0,1 0,2c0,1 0,1 0,2l0,0l0,1l0,0" id="svg_49" stroke-width="3" stroke="#000" fill="none"/>
  <path d="m81,134c0,0 -1,0 -1,0c0,0 0,-1 0,-1c-1,0 -1,-1 -3,-3c-1,-1 -2.07612,-2.61732 -3,-3c-2.61312,-1.08239 -2,-3 -4,-5c-1,-1 -2,-2 -3,-4c0,0 -0.77025,-1.02675 -1,-2c-0.51374,-2.17625 -0.83772,-2.83772 -4,-6c-1.58114,-1.58114 -3,-3 -3,-3c-1,-1 -1,-1 -1,-1c-1,-1 -1.91761,-1.38687 -3,-4c-0.38268,-0.92388 -1.1731,-0.85273 -2,-2c-1.30745,-1.814 -1,-2 -2,-3c-1,-1 -1.1731,-0.85273 -2,-2c-1.30745,-1.814 -1.61732,-2.07612 -2,-3c-0.5412,-1.30656 -1,-1 -2,-2c-1,-1 -0.69344,-2.4588 -2,-3c-0.92388,-0.38268 -1,-1 -1,-1c-1,-1 -1,-1 -2,-2c0,0 -1,-1 -1,-1c0,0 0,-1 -1,-1c0,0 0,0 0,0c0,0 2,0 3,0c2,0 3,0 5,0c2,0 5,0 6,0c2,0 4.18601,-0.69255 6,-2c1.14727,-0.8269 3.297,-2.61384 6,-5c1.67633,-1.47984 3,-2 4,-3c1,-1 2.45881,-2.69344 3,-4c0.38268,-0.92388 1,-2 2,-4c1,-2 1.61732,-4.07612 2,-5c0.54119,-1.30656 1,-2 1,-4c0,-1 1,-2 1,-4c0,-1 -1,-2 -1,-3c0,-1 0,-3 0,-3c0,-1 -0.45881,-0.69344 -1,-2c-0.38268,-0.92388 -1,-2 -1,-2c0,-1 -1,-2 -2,-3c0,0 -1.1731,-0.85273 -2,-2c-1.30745,-1.81399 -1,-2 -2,-3c-1,-1 -1,-1 -2,-2c0,0 -0.69344,-1.4588 -2,-2c-0.92388,-0.38268 -1,-1 -2,-2c0,0 -1,0 -2,-1c0,0 -0.29289,-0.29289 -1,-1c-2.12132,-2.12132 -2.69344,-0.4588 -4,-1c-0.92388,-0.38268 -1,0 -2,0c-1,0 -2,0 -3,0c-1,0 -1,0 -1,0c-1,0 -1,0 -1,0c-1,0 -1,0 -1,0c-1,0 -1,1 -1,1c0,0 0,0 0,0c-1,1 -1,1 -1,1c-1,1 -2,1 -2,1c0,0 0,0 0,0c-1,0 -1,1 -1,1l0,0l0,0l0,1" id="svg_50" stroke-width="3" stroke="#000" fill="none"/>
  <path d="m107,78c0,0 0,1 0,3c0,2 -1,4 -1,6c0,1 0,3 0,3c-1,1 -1,2 -1,3c0,1 -0.4588,1.69344 -1,3c-0.38268,0.92388 0,2 0,3c0,1 0,2 0,3c0,1 0,2 0,3c0,1 0,2 0,3c0,1 0,2 0,3c0,1 0,2 0,2c0,2 -1,3 -1,5c0,0 0,1 0,1c0,1 0.70711,2.29289 0,3c-0.70711,0.70711 -1,1 -1,1c0,1 0.38268,2.07612 0,3c-0.5412,1.30656 -0.61732,1.07613 -1,2c-0.5412,1.30656 -0.29289,1.29289 -1,2c-0.70711,0.70711 -0.69344,1.4588 -2,2c-0.92388,0.38269 -1.07612,-0.38269 -2,0c-1.30656,0.5412 -2,1 -2,2c0,0 -1,0 -1,0c-1,0 -1,0 -2,0c0,0 -1,0 -1,0c-1,0 -1,0 -1,0c0,0 0,0 -1,0c0,0 0.70711,-0.29289 0,-1c-0.70711,-0.70711 -1,0 -1,0c0,-1 -1,-1 -1,-1c0,0 0,-1 0,-1c-1,0 -1,0 -1,-1c0,0 -1,-1 -1,-1c0,0 -1,-1 -1,-1c0,0 0,-1 0,-1c0,0 -1,0 -1,-1c0,0 0,0 0,-1c0,0 -1,0 -1,-1c0,0 0,0 0,-1c0,0 -1,0 -1,-1c0,0 0,0 0,0c0,-1 0,-1 0,-2c0,0 -1,-1 -1,-1c0,0 0,-1 0,-1c0,-1 0,-1 0,-2c0,-1 0,-1 0,-3c0,0 0,-1 0,-2c0,-1 0,-1 0,-2c0,-1 0.45881,-0.69344 1,-2c0.38268,-0.92388 0,-1 0,-2c0,-1 0,-1 0,-2c0,-1 1,-2 1,-2c0,-1 0,-2 0,-2c0,-1 1,-2 1,-3c0,-1 0,-2 0,-2c0,0 1,-2 1,-2c0,-1 0,-2 0,-2c0,-2 0.4588,-1.69344 1,-3c0.38268,-0.92388 0,-1 0,-3c0,0 0.4588,0.30656 1,-1c0.76537,-1.84776 0,-2 0,-2c0,-1 0,-1 0,-1c0,-1 0,-1 1,-1l0,0l0,-1l0,0" id="svg_51" stroke-width="3" stroke="#000" fill="none"/>
  <path d="m123,26c0,0 0,1 0,1c0,3 0,4 0,8c0,6 1.14805,9.22836 0,12c-0.5412,1.30656 -1,2 -1,6c0,1 -0.48626,1.82375 -1,4c-1.14877,4.86625 -1,7 -1,10c0,2 -1,5 -1,6c0,2 -0.4588,1.69344 -1,3c-0.38268,0.92388 0.22975,3.02675 0,4c-0.51374,2.17625 -1,3 -1,5c0,2 -1,4 -1,6c0,2 -0.48626,4.82375 -1,7c-0.22975,0.97325 0.4595,3.0535 0,5c-0.51374,2.17625 -1,2 -1,3c0,1 -1,4 -1,5c0,1 0,2 0,2c-1,2 -1,4 -1,5c0,1 -1,1 -1,2c0,1 0,1 0,2c0,1 -1,1 -1,3c0,0 0,1 0,1c0,0 -1,1 -1,2c0,1 -0.4588,0.69344 -1,2c-0.38268,0.92387 0.70711,2.29289 0,3c-0.70711,0.70711 -1,1 -1,1c0,0 0,0 0,1c0,0 0,0 0,0c0,1 0,1 0,1l0,0l0,0" id="svg_52" stroke-width="3" stroke="#000" fill="none"/>
  <path d="m131,97c0,0 0.07613,-0.38268 1,0c1.30656,0.5412 1,1 3,1c0,0 1,0 2,0c0,0 1,0 2,0c1,0 1,0 2,0c1,0 1,0 1,0c1,0 1,0 1,-1c0,-1 0,-1 0,-3c0,-1 0.22975,-2.02675 0,-3c-0.51375,-2.17625 -1.4588,-1.69344 -2,-3c-0.38269,-0.92388 -0.29289,-1.29289 -1,-2c-0.70711,-0.70711 -1,-1 -1,-1c-1,0 -1.07613,0.38268 -2,0c-1.30656,-0.5412 -3,-1 -4,-1c-1,0 -2,0 -2,0c0,0 -1,0 -1,0c0,0 -1,0 -1,0c-1,0 -1,0 -1,0c-1,1 -1,2 -2,3c0,0 -1.48626,0.82375 -2,3c-0.22975,0.97325 -0.4588,1.69344 -1,3c-0.38268,0.92388 -1,2 -1,3c0,1 -0.77025,3.02675 -1,4c-0.51374,2.17625 -1,2 -1,3c0,2 0,2 0,5c0,0 0,2 0,5c0,0 0,2 0,2c0,1 0,2 0,3c0,0 0,2 0,3c0,1 0,1 0,2c0,0 1,1 1,1c0,1 0,2 0,2c0,0 1,0 1,1c0,0 -0.70711,0.29289 0,1c0.70711,0.70711 1.29289,1.29289 2,2c0.70711,0.70711 0.29289,0.29289 1,1c0.70711,0.70711 0.29289,0.29289 1,1c0.70711,0.70711 1,0 1,0c1,1 1,1 1,1c1,0 2,0 2,0c1,0 2,0 3,0c0,0 0.85274,-0.1731 2,-1c1.814,-1.30745 3,-2 4,-3l1,0l0,-1l0,0" id="svg_53" stroke-width="3" stroke="#000" fill="none"/>
  <path d="m173,94c0,0 0,-1 0,-1c0,-1 0,-2 0,-4c0,-1 0,-2 0,-3c0,0 0,0 0,-1c0,0 -1.4588,-0.69344 -2,-2c-0.38269,-0.92388 -1,-1 -1,-1c-1,-1 -0.69344,-1.4588 -2,-2c-0.92387,-0.38268 -1.07613,0.38268 -2,0c-1.30656,-0.5412 -1,-1 -2,-1c0,0 -1,0 -2,0c-1,0 -1,0 -2,0c0,0 -1,0 -1,0c-1,0 -1,0 -1,0c-1,0 -0.69344,0.4588 -2,1c-0.92387,0.38268 -1,1 -1,1c-1,0 -0.29289,0.29289 -1,1c-0.70711,0.70711 -0.29289,1.29289 -1,2c-0.70711,0.70711 -1.29289,0.29289 -2,1c-0.70711,0.70711 -0.4588,1.69344 -1,3c-0.38269,0.92388 -1,2 -1,3c0,1 -1,2 -1,3c0,1 -1,3 -1,3c0,1 0,2 0,3c0,0 0,1 0,1c0,0 1,1 1,1c0,0 0,1 1,2c0,0 1,1 1,1c1,0 2,1 2,1c0,0 1,0 2,0c1,0 1,1 2,1c0,0 0,0 1,0c0,0 1,0 1,0c2,0 2,0 3,0c0,0 0.29289,-0.29289 1,-1c0.70711,-0.70711 2,0 2,0c1,0 1,0 1,0c1,0 1,0 1,0c0,0 1,0 1,0c1,1 1,1 1,1c1,1 1.4588,0.69344 2,2c0.38269,0.92388 1,4 1,4c1,1 1,3 1,3c0,1 0,2 0,2c0,1 1,2 1,3c0,0 0,1 0,2c0,0 -1,1 -1,1c-1,1 -1.9176,0.38687 -3,3c-0.38269,0.92388 -0.69344,2.4588 -2,3c-0.92387,0.38269 -3,1 -4,2c0,0 -1.29289,1.29289 -2,2c-1.41422,1.41422 -2.58578,-0.41422 -4,1c-0.70711,0.70711 -1.07613,0.61731 -2,1c-1.30656,0.5412 -2,1 -2,1c0,0 -1,0 -1,0c-2,0 -2,0 -3,0c0,0 -1,0 -1,0c0,0 0,-1 -1,-1c0,0 -1,-1 -1,-2c0,0 0,-1 0,-2c0,-1 0,-1 0,-2c0,-1 0,-1 0,-2c0,0 0,-1 0,-1c0,-1 0,-1 0,-1c0,-1 0,-1 0,-1l1,0l0,-1" id="svg_54" stroke-width="3" stroke="#000" fill="none"/>
 </g>
</svg>